<svg width="582" height="570" viewBox="0 0 582 570" fill="none" xmlns="http://www.w3.org/2000/svg">
<path d="M214.5 105V103.5H213H145H143.5V105V411V411.615L143.932 412.053L211.932 481.053L214.5 483.659V480V105Z" fill="#666666" stroke="black" stroke-width="3"/>
<path d="M317.5 311V309.5H316H244H242.5V311V480V483.621L245.061 481.061L317.061 409.061L317.5 408.621V408V311Z" fill="#F5A623" stroke="black" stroke-width="3"/>
<path d="M387.075 206.046L389.55 203.5H386H244H242.5V205V277V278.5H244H316H316.634L317.075 278.046L387.075 206.046Z" fill="#666666" stroke="black" stroke-width="3"/>
<path d="M485.084 106.037L487.51 103.5H484H244H242.5V105V174V175.5H244H418H418.641L419.084 175.037L485.084 106.037Z" fill="#222222" stroke="black" stroke-width="3"/>
</svg>
