<svg height="640" viewBox="0 0 640 640" width="640" xmlns="http://www.w3.org/2000/svg"><g fill="none" fill-rule="evenodd"><path d="m-1 0h640v640h-640z" fill="#f5a623"/><circle cx="320" cy="320" fill="#36393f" r="300" stroke="#202225" stroke-width="18"/><path d="m67 97h479v479h-479z"/><g transform="translate(142.335681 134.105634)"><g><path d="m76.4600939 0v421.65493l-76.4600939-77.584507v-344.070423z" fill="#666" fill-rule="evenodd"/><path d="m77.9600939-1.5v426.813964l-79.4600939-80.628625v-346.185339z" stroke="#000" stroke-width="3"/></g><g><path d="m192.274648 231.629108v109.068075l-80.957747 80.957747v-190.025822z" fill="#f5a623" fill-rule="evenodd"/><path d="m193.774648 230.129108v111.189395l-83.957747 83.957747v-195.147142z" stroke="#000" stroke-width="3"/></g><g><path d="m270.983568 112.441315-78.70892 80.957746h-80.957747v-80.957746z" fill="#666" fill-rule="evenodd"/><path d="m274.533966 110.941315-81.625586 83.957746h-83.091479v-83.957746z" stroke="#000" stroke-width="3"/></g><g><path d="m381.176056 0-74.211267 77.584507h-195.647888v-77.584507z" fill="#222" fill-rule="evenodd"/><path d="m384.686556-1.5-77.080833 80.584507h-197.788822v-80.584507z" stroke="#000" stroke-width="3"/></g></g></g></svg>