# Blender v2.82 (sub 7) OBJ File: 'logo.blend'
# www.blender.org
mtllib logo.mtl
o FRB_Orange_Plane.001
v -0.109271 0.000000 0.060000
v 0.060000 0.000000 0.060000
v 0.060000 0.000000 0.300000
v -0.110000 0.000000 0.460000
v -0.109271 0.044496 0.060000
v 0.060000 0.044496 0.060000
v 0.060000 0.044496 0.300000
v -0.110000 0.044496 0.460000
vt 0.557703 0.434299
vt 0.560032 0.199882
vt 0.390817 0.032219
vt 0.386936 0.431970
vt 0.557703 0.434299
vt 0.386936 0.431970
vt 0.390817 0.032219
vt 0.560032 0.199882
vn 0.0000 -1.0000 0.0000
vn 0.0000 1.0000 0.0000
vn -0.0000 0.0000 -1.0000
vn 1.0000 0.0000 0.0000
vn 0.6854 0.0000 0.7282
vn -1.0000 0.0000 -0.0018
usemtl FRB_Orange
s off
f 2/1/1 3/2/1 4/3/1 1/4/1
f 6/5/2 5/6/2 8/7/2 7/8/2
f 2/1/3 1/4/3 5/6/3 6/5/3
f 3/2/4 2/1/4 6/5/4 7/8/4
f 4/3/5 3/2/5 7/8/5 8/7/5
f 1/4/6 4/3/6 8/7/6 5/6/6
o FRB_Grey.001_Plane.002
v -0.110182 0.000000 -0.180000
v 0.223966 0.000000 -0.180000
v 0.059905 0.000000 -0.010000
v -0.110504 0.000000 -0.010000
v -0.110182 0.044496 -0.180000
v 0.223966 0.044496 -0.180000
v 0.059905 0.044496 -0.010000
v -0.110504 0.044496 -0.010000
vt 0.388090 0.684764
vt 0.725982 0.685413
vt 0.560444 0.513383
vt 0.387765 0.513708
vt 0.388090 0.684764
vt 0.387765 0.513708
vt 0.560444 0.513383
vt 0.725982 0.685413
vn 0.0000 -1.0000 0.0000
vn 0.0000 1.0000 0.0000
vn 0.0000 0.0000 -1.0000
vn 0.7196 0.0000 0.6944
vn 0.0000 0.0000 1.0000
vn -1.0000 0.0000 -0.0019
usemtl FRB_Grey
s off
f 9/9/7 10/10/7 11/11/7 12/12/7
f 13/13/8 16/14/8 15/15/8 14/16/8
f 10/10/9 9/9/9 13/13/9 14/16/9
f 11/11/10 10/10/10 14/16/10 15/15/10
f 12/12/11 11/11/11 15/15/11 16/14/11
f 9/9/12 12/12/12 16/14/12 13/13/12
o FRB_Anthrazit_Plane.003
v -0.110504 0.000000 -0.420000
v -0.109539 0.000000 -0.260000
v 0.454295 0.000000 -0.420000
v 0.300206 0.000000 -0.260000
v -0.110504 0.044496 -0.420000
v -0.109539 0.044496 -0.260000
v 0.454295 0.044496 -0.420000
v 0.300206 0.044496 -0.260000
vt 0.000000 0.000000
vt 0.000000 0.000000
vt 0.000000 0.000000
vt 0.000000 0.000000
vt 0.000000 0.000000
vt 0.000000 0.000000
vt 0.000000 0.000000
vt 0.000000 0.000000
vn 0.0000 -1.0000 0.0000
vn 0.0000 1.0000 -0.0000
vn 0.0000 0.0000 1.0000
vn 0.0000 0.0000 -1.0000
vn -1.0000 0.0000 0.0060
vn 0.7203 0.0000 0.6937
usemtl FRB_Anthrazit
s off
f 17/17/13 19/18/13 20/19/13 18/20/13
f 21/21/14 22/22/14 24/23/14 23/24/14
f 20/19/15 24/23/15 22/22/15 18/20/15
f 17/17/16 21/21/16 23/24/16 19/18/16
f 18/20/17 22/22/17 21/21/17 17/17/17
f 19/18/18 23/24/18 24/23/18 20/19/18
o FRB_Grey.002_Plane.004
v -0.340362 0.000000 -0.420000
v -0.179615 0.000000 -0.420000
v -0.180385 0.000000 0.460000
v -0.339638 0.000000 0.300000
v -0.340362 0.044496 -0.420000
v -0.179615 0.044496 -0.420000
v -0.180385 0.044496 0.460000
v -0.339638 0.044496 0.300000
vt 0.000000 0.000000
vt 0.000000 0.000000
vt 0.000000 0.000000
vt 0.000000 0.000000
vt 0.000000 0.000000
vt 0.000000 0.000000
vt 0.000000 0.000000
vt 0.000000 0.000000
vn 0.0000 -1.0000 0.0000
vn 0.0000 1.0000 0.0000
vn -0.7088 0.0000 0.7055
vn -0.0000 0.0000 -1.0000
vn 1.0000 0.0000 0.0009
vn -1.0000 0.0000 0.0010
usemtl FRB_Grey
s off
f 26/25/19 27/26/19 28/27/19 25/28/19
f 30/29/20 29/30/20 32/31/20 31/32/20
f 27/26/21 31/32/21 32/31/21 28/27/21
f 25/28/22 29/30/22 30/29/22 26/25/22
f 26/25/23 30/29/23 31/32/23 27/26/23
f 28/27/24 32/31/24 29/30/24 25/28/24
