<svg height="426" viewBox="0 0 426 426" width="426" xmlns="http://www.w3.org/2000/svg"><g fill="none" fill-rule="evenodd"><path d="m0 0h426v426h-426z"/><path d="m0 0h426v426h-426z"/><g transform="translate(67 33)"><g><path d="m68 0v375l-68-69v-306z" fill="#666" fill-rule="evenodd"/><path d="m69.5-1.5v380.159034l-71-72.044118v-308.114916z" stroke="#000" stroke-width="3"/></g><g><path d="m171 206v97l-72 72v-169z" fill="#f5a623" fill-rule="evenodd"/><path d="m172.5 204.5v99.12132l-75 75v-174.12132z" stroke="#000" stroke-width="3"/></g><g><path d="m241 100-70 72h-72v-72z" fill="#666" fill-rule="evenodd"/><path d="m244.550398 98.5-72.916666 75h-74.133732v-75z" stroke="#000" stroke-width="3"/></g><g><path d="m339 0-66 69h-174v-69z" fill="#222" fill-rule="evenodd"/><path d="m342.5105-1.5-68.869566 72h-176.140934v-72z" stroke="#000" stroke-width="3"/></g></g></g></svg>